Normalized EMG Linear Envelopes
nRows=115
nColumns=4

endheader
time	 med_gas_r	  soleus_r	 tib_ant_r	
4.00806	  0.009881	  0.010361	  0.042253	
4.07964	  0.010129	  0.010591	  0.046997	
4.15121	  0.010325	  0.010667	  0.049384	
4.22278	  0.010314	  0.010511	  0.049679	
4.29435	  0.010055	  0.010166	  0.049027	
4.36593	  0.009713	  0.009781	  0.046835	
4.4375	  0.009522	  0.009550	  0.042267	
4.50907	  0.009644	  0.009590	  0.036379	
4.58065	  0.010092	  0.009791	  0.030519	
4.65222	  0.010789	  0.009912	  0.024557	
4.72379	  0.011548	  0.010115	  0.018308	
4.79536	  0.012274	  0.011411	  0.012791	
4.86694	  0.013313	  0.015090	  0.009102	
4.93851	  0.014883	  0.020875	  0.007209	
5.01008	  0.016265	  0.025765	  0.006339	
5.08165	  0.016380	  0.026263	  0.006384	
5.15323	  0.014950	  0.022016	  0.008638	
5.2248	  0.012746	  0.015999	  0.014709	
5.29637	  0.010840	  0.011389	  0.023265	
5.36794	  0.009687	  0.009240	  0.028534	
5.43952	  0.009173	  0.008806	  0.026094	
5.51109	  0.009253	  0.009042	  0.018823	
5.58266	  0.009873	  0.009382	  0.012707	
5.65423	  0.010634	  0.009658	  0.010162	
5.72581	  0.011130	  0.009928	  0.010151	
5.79738	  0.011364	  0.010342	  0.010813	
5.86895	  0.011551	  0.010861	  0.010710	
5.94052	  0.011712	  0.010953	  0.009513	
6.0121	  0.011425	  0.009682	  0.007732	
6.08367	  0.009967	  0.006645	  0.005891	
6.15524	  0.007000	  0.003465	  0.004476	
6.22681	  0.004010	  0.005025	  0.004237	
6.29839	  0.006323	  0.019519	  0.006200	
6.36996	  0.023560	  0.054690	  0.011334	
6.44153	  0.065323	  0.109923	  0.019495	
6.5131	  0.131385	  0.171923	  0.028688	
6.58468	  0.206422	  0.222007	  0.036273	
6.65625	  0.271999	  0.251553	  0.040923	
6.72782	  0.321435	  0.269327	  0.043282	
6.7994	  0.354074	  0.289241	  0.045145	
6.87097	  0.364218	  0.315925	  0.047798	
6.94254	  0.350922	  0.347082	  0.050925	
7.01411	  0.329611	  0.379615	  0.053159	
7.08569	  0.317920	  0.409597	  0.053524	
7.15726	  0.320761	  0.435591	  0.052648	
7.22883	  0.339285	  0.464940	  0.052483	
7.3004	  0.376697	  0.509171	  0.054441	
7.37198	  0.428099	  0.565320	  0.057954	
7.44355	  0.478426	  0.611319	  0.060570	
7.51512	  0.513855	  0.629899	  0.060120	
7.58669	  0.531078	  0.624236	  0.057499	
7.65827	  0.534824	  0.607572	  0.055772	
7.72984	  0.528745	  0.591284	  0.056419	
7.80141	  0.516461	  0.581999	  0.058133	
7.87298	  0.507592	  0.580921	  0.059027	
7.94456	  0.506243	  0.582366	  0.058666	
8.01613	  0.503787	  0.577619	  0.057654	
8.0877	  0.496863	  0.565718	  0.056352	
8.15927	  0.491635	  0.555769	  0.054888	
8.23085	  0.487716	  0.555906	  0.053569	
8.30242	  0.478750	  0.566112	  0.052642	
8.37399	  0.464175	  0.579428	  0.052127	
8.44556	  0.449487	  0.584852	  0.051889	
8.51714	  0.436879	  0.576140	  0.051635	
8.58871	  0.421420	  0.555727	  0.050747	
8.66028	  0.399577	  0.525541	  0.048396	
8.73185	  0.374065	  0.487572	  0.044698	
8.80343	  0.348901	  0.452866	  0.041075	
8.875	  0.327572	  0.434090	  0.038740	
8.94657	  0.312879	  0.430709	  0.037893	
9.01815	  0.304208	  0.432012	  0.038493	
9.08972	  0.297648	  0.433281	  0.040659	
9.16129	  0.290523	  0.436117	  0.043694	
9.23286	  0.284504	  0.436852	  0.045472	
9.30444	  0.280796	  0.432774	  0.044584	
9.37601	  0.277293	  0.430906	  0.042384	
9.44758	  0.275341	  0.437411	  0.041166	
9.51915	  0.279960	  0.448440	  0.041750	
9.59073	  0.292187	  0.456499	  0.043643	
9.6623	  0.309449	  0.460858	  0.045909	
9.73387	  0.329603	  0.466852	  0.047394	
9.80544	  0.348000	  0.474320	  0.047169	
9.87702	  0.353408	  0.475497	  0.045648	
9.94859	  0.336735	  0.468448	  0.044246	
10.0202	  0.305401	  0.461953	  0.043526	
10.0917	  0.276781	  0.460641	  0.043342	
10.1633	  0.259265	  0.455682	  0.043765	
10.2349	  0.251409	  0.437394	  0.044296	
10.3065	  0.250762	  0.409796	  0.044066	
10.378	  0.254599	  0.385282	  0.043232	
10.4496	  0.259465	  0.370676	  0.042618	
10.5212	  0.261749	  0.366406	  0.042361	
10.5927	  0.257638	  0.370471	  0.042058	
10.6643	  0.246520	  0.378331	  0.041642	
10.7359	  0.232487	  0.387166	  0.041012	
10.8075	  0.219911	  0.394488	  0.039883	
10.879	  0.209981	  0.388856	  0.038577	
10.9506	  0.201794	  0.359151	  0.037561	
11.0222	  0.194555	  0.315862	  0.036576	
11.0937	  0.188532	  0.284640	  0.035303	
11.1653	  0.184654	  0.277963	  0.033848	
11.2369	  0.182181	  0.285045	  0.032159	
11.3085	  0.176866	  0.286254	  0.030168	
11.38	  0.163826	  0.270405	  0.028431	
11.4516	  0.143909	  0.240573	  0.027534	
11.5232	  0.125505	  0.209377	  0.027063	
11.5948	  0.116550	  0.187877	  0.025982	
11.6663	  0.115599	  0.175065	  0.023899	
11.7379	  0.113957	  0.162258	  0.021414	
11.8095	  0.105081	  0.145668	  0.019241	
11.881	  0.089231	  0.127544	  0.017479	
11.9526	  0.070401	  0.110452	  0.015904	
12.0242	  0.051936	  0.095170	  0.014565	
12.0958	  0.035510	  0.080950	  0.013759	
12.1673	  0.020995	  0.066699	  0.013468	
